<svg width="41" height="41" viewBox="0 0 41 41" fill="none" xmlns="http://www.w3.org/2000/svg">
<g id="Group">
<path id="Vector" opacity="0.2" fill-rule="evenodd" clip-rule="evenodd" d="M31.8002 17.894C32.8947 18.2391 33.8842 18.806 34.6907 19.5501C35.4972 20.2941 36.0987 21.1949 36.4477 22.1815L39.7002 31.2019C40.9802 34.7522 38.8752 38.5786 35.0027 39.7502C34.2563 39.976 33.4734 40.0911 32.6852 40.091H12.4602C8.3852 40.091 5.0752 37.0619 5.0752 33.3245C5.0752 32.6051 5.2002 31.8879 5.4502 31.2041L8.7002 22.1837C9.04911 21.1965 9.65081 20.2951 10.4578 19.5506C11.2648 18.8062 12.255 18.239 13.3502 17.894C12.8652 16.4841 12.5752 15.1388 12.5752 14.0007C12.5752 8.72873 17.0502 4.45459 22.5752 4.45459C28.1002 4.45459 32.5752 8.72873 32.5752 14.0007C32.5752 15.1388 32.2877 16.4841 31.8002 17.894Z" fill="#D0B583"/>
<path id="Vector_2" fill-rule="evenodd" clip-rule="evenodd" d="M17.5752 15.591C18.9013 15.591 20.173 15.1217 21.1107 14.2863C22.0484 13.4509 22.5752 12.3178 22.5752 11.1364C22.5752 9.95501 22.0484 8.82198 21.1107 7.98659C20.173 7.1512 18.9013 6.68188 17.5752 6.68188C16.2491 6.68188 14.9773 7.1512 14.0397 7.98659C13.102 8.82198 12.5752 9.95501 12.5752 11.1364C12.5752 12.3178 13.102 13.4509 14.0397 14.2863C14.9773 15.1217 16.2491 15.591 17.5752 15.591ZM17.5752 8.90916C18.2382 8.90916 18.8741 9.14382 19.343 9.56151C19.8118 9.97921 20.0752 10.5457 20.0752 11.1364C20.0752 11.7271 19.8118 12.2937 19.343 12.7113C18.8741 13.129 18.2382 13.3637 17.5752 13.3637C16.9122 13.3637 16.2763 13.129 15.8074 12.7113C15.3386 12.2937 15.0752 11.7271 15.0752 11.1364C15.0752 10.5457 15.3386 9.97921 15.8074 9.56151C16.2763 9.14382 16.9122 8.90916 17.5752 8.90916Z" fill="#D0B583"/>
<path id="Vector_3" fill-rule="evenodd" clip-rule="evenodd" d="M6.3252 10.6597C6.3252 16.6132 12.9577 26.7273 17.5752 26.7273C22.1952 26.7273 28.8252 16.6132 28.8252 10.6597C28.8252 4.78864 23.8077 0 17.5752 0C11.3427 0 6.3252 4.78864 6.3252 10.6597ZM26.3252 10.6597C26.3252 15.5441 20.4552 24.5 17.5752 24.5C14.6977 24.5 8.8252 15.5464 8.8252 10.6597C8.8252 5.98468 12.7627 2.22727 17.5752 2.22727C22.3877 2.22727 26.3252 5.98468 26.3252 10.6597Z" fill="#D0B583"/>
<path id="Vector_4" d="M26.1626 17.0164C25.8637 16.9019 25.6268 16.6879 25.5021 16.4201C25.3774 16.1524 25.3749 15.8518 25.495 15.5824C25.6151 15.313 25.8484 15.0959 26.1454 14.9773C26.4423 14.8587 26.7794 14.8479 27.0851 14.9473C28.1017 15.3065 29.0179 15.8595 29.7693 16.5674C30.5207 17.2754 31.0893 18.1211 31.4351 19.0455L34.7701 27.9546C35.1462 28.9594 35.2488 30.0294 35.0694 31.0765C34.89 32.1236 34.4338 33.1177 33.7383 33.9767C33.0429 34.8358 32.1282 35.5353 31.0696 36.0175C30.0111 36.4997 28.839 36.7508 27.6501 36.7501H7.50014C6.31167 36.7501 5.14021 36.4985 4.0823 36.016C3.0244 35.5335 2.11035 34.8339 1.41548 33.9749C0.720614 33.1159 0.264829 32.1221 0.0856895 31.0754C-0.0934496 30.0287 0.00918709 28.959 0.38514 27.9546L3.71764 19.0455C4.06952 18.1046 4.6521 17.2452 5.4231 16.5298C6.19409 15.8144 7.13418 15.2609 8.17514 14.9094C8.32862 14.8575 8.49208 14.833 8.65618 14.8374C8.82028 14.8418 8.98181 14.8749 9.13154 14.9349C9.28128 14.9948 9.41629 15.0805 9.52886 15.187C9.64143 15.2934 9.72937 15.4186 9.78764 15.5553C9.84591 15.6921 9.87339 15.8377 9.86849 15.9839C9.86359 16.1301 9.82642 16.274 9.7591 16.4074C9.69178 16.5408 9.59562 16.6611 9.47612 16.7614C9.35662 16.8617 9.21612 16.94 9.06264 16.9919C8.36779 17.2261 7.74024 17.5953 7.22563 18.0727C6.71101 18.55 6.32226 19.1235 6.08764 19.7515L2.75514 28.6606C2.50479 29.3303 2.43663 30.0434 2.5563 30.7411C2.67597 31.4388 2.98003 32.1012 3.44343 32.6737C3.90683 33.2462 4.51629 33.7124 5.2216 34.0339C5.92692 34.3554 6.70788 34.523 7.50014 34.5228H27.6551C28.4475 34.5227 29.2285 34.3549 29.9337 34.0332C30.639 33.7114 31.2483 33.2449 31.7114 32.6722C32.1746 32.0995 32.4784 31.4368 32.5977 30.739C32.717 30.0411 32.6484 29.328 32.3976 28.6584L29.0676 19.7493C28.8369 19.1333 28.4577 18.5698 27.9568 18.0981C27.4559 17.6264 26.8452 17.258 26.1676 17.0187" fill="#D0B583"/>
</g>
</svg>
