<svg width="41" height="41" viewBox="0 0 41 41" fill="none" xmlns="http://www.w3.org/2000/svg">
<path id="Vector" d="M6.19849 0C3.48877 0 0.775658 2.04769 0.775658 6.14308L6.19849 17.0641L11.6179 6.14308C11.6179 2.04769 8.90821 0 6.19849 0ZM30.1033 3.3275C29.519 3.35224 28.9517 3.46401 28.4775 3.5664L28.7993 5.06804C29.2735 4.96139 29.7646 4.89398 30.1795 4.86327L30.1033 3.3275ZM6.19849 3.41282C7.6973 3.41282 8.90821 4.63546 8.90821 6.14308C8.90821 7.65325 7.6973 8.87333 6.19849 8.87333C4.70221 8.87333 3.48877 7.65325 3.48877 6.14308C3.48877 4.63546 4.70221 3.41282 6.19849 3.41282ZM31.7884 3.42988L31.5344 4.94006C31.9493 5.02794 32.3642 5.138 32.7283 5.35813L33.4651 4.01006C32.9485 3.73277 32.3727 3.48364 31.7884 3.42988ZM26.9194 4.00153C26.4028 4.2046 25.8863 4.38633 25.446 4.56465L26.0472 5.97244C26.5129 5.77279 27.0041 5.59873 27.419 5.45198L26.9194 4.00153ZM34.8538 5.14483L33.6937 6.14308C33.9985 6.4946 34.2356 6.92803 34.4219 7.27784L35.7853 6.58674C35.4973 6.02789 35.2433 5.6047 34.8538 5.14483ZM24.0318 5.22162C23.5153 5.48696 23.0919 5.7233 22.6346 5.95537L23.3798 7.30344C23.8201 7.04747 24.3028 6.80005 24.6923 6.60381L24.0318 5.22162ZM21.2967 6.74885C20.8479 7.01335 20.4076 7.27784 19.9757 7.56793L20.8056 8.84774C21.2205 8.57471 21.6524 8.31875 22.0758 8.06279L21.2967 6.74885ZM36.3103 8.27609C35.8107 8.36141 35.3026 8.42113 34.803 8.48086C34.8368 8.90746 34.8114 9.36819 34.7268 9.72654L36.2086 10.0764C36.2933 9.46205 36.3695 8.83067 36.3103 8.27609ZM18.6886 8.42113C18.2652 8.71122 17.8503 9.00985 17.4269 9.29994L18.3076 10.5541C18.714 10.2555 19.1289 9.97397 19.5439 9.68388L18.6886 8.42113ZM16.1821 10.2214C15.7587 10.5286 15.3184 10.8698 14.9543 11.1514L15.8773 12.3715C16.343 12.0302 16.6648 11.7742 17.0882 11.4585L16.1821 10.2214ZM34.2187 10.904C33.9647 11.2964 33.6683 11.6889 33.3719 11.9875L34.4812 13.054C34.8453 12.6189 35.2348 12.1752 35.5058 11.7316L34.2187 10.904ZM13.7434 12.107C13.3284 12.4312 12.9135 12.7639 12.5494 13.0711L13.5147 14.2571C13.9127 13.9243 14.3192 13.583 14.6918 13.31L13.7434 12.107ZM32.3219 12.9687C31.9324 13.2844 31.5259 13.5916 31.1533 13.8475L32.0255 15.1103C32.4743 14.8031 32.9146 14.4704 33.2957 14.1632L32.3219 12.9687ZM11.3724 14.0694C10.9744 14.3936 10.5933 14.7349 10.2038 15.0676L11.1945 16.2365C11.5756 15.9037 11.9566 15.571 12.3462 15.2468L11.3724 14.0694ZM29.9085 14.6666C29.4767 14.9226 29.0279 15.1871 28.6214 15.4089L29.3497 16.7655C29.8069 16.4839 30.3235 16.2365 30.7045 15.9805L29.9085 14.6666ZM9.04369 16.0829C8.66264 16.4242 8.29005 16.7655 7.909 17.1153L8.93361 18.2586C9.3062 17.9173 9.68725 17.576 10.0598 17.2347L9.04369 16.0829ZM27.292 16.117C26.8432 16.3389 26.3944 16.5692 25.9456 16.7911L26.5976 18.1733C27.1226 17.9173 27.5121 17.704 27.9863 17.4822L27.292 16.117ZM24.5823 17.431C24.1165 17.6443 23.6677 17.8491 23.1935 18.0453L23.8117 19.4531C24.2774 19.2483 24.7431 19.035 25.2089 18.8217L24.5823 17.431ZM6.79124 18.1733C6.35938 18.5572 6.05877 18.8558 5.66501 19.2398L6.74043 20.3489C7.13842 19.965 7.4602 19.6323 7.83279 19.308L6.79124 18.1733ZM21.8048 18.6681C21.3391 18.8644 20.8733 19.0691 20.4076 19.2654L21.0003 20.6902C21.4745 20.494 21.9403 20.2892 22.406 20.0844L21.8048 18.6681ZM19.0019 19.8626C18.5362 20.0674 18.0705 20.2722 17.5963 20.4599L18.189 21.8847C18.6547 21.6885 19.1289 21.4837 19.5947 21.2875L19.0019 19.8626ZM34.6506 20.4769C31.9408 20.4769 29.2311 22.5246 29.2311 26.62L34.6506 37.541L40.07 26.62C40.07 22.5246 37.3603 20.4769 34.6506 20.4769ZM16.1906 21.0571C15.7079 21.2789 15.1998 21.4837 14.7849 21.6629L15.3861 23.0792C15.8857 22.8659 16.3599 22.6611 16.7833 22.4734L16.1906 21.0571ZM13.3792 22.2687C12.922 22.482 12.3885 22.7209 11.982 22.9086L12.6087 24.3078C13.1083 24.086 13.5486 23.8641 13.9889 23.6764L13.3792 22.2687ZM10.5848 23.5485C10.1106 23.7788 9.61951 24.0177 9.19611 24.231L9.88201 25.6047C10.3393 25.3658 10.8135 25.144 11.2284 24.9392L10.5848 23.5485ZM34.6506 23.8897C36.1494 23.8897 37.3603 25.1098 37.3603 26.62C37.3603 28.1302 36.1494 29.3503 34.6506 29.3503C33.1517 29.3503 31.9408 28.1302 31.9408 26.62C31.9408 25.1098 33.1517 23.8897 34.6506 23.8897ZM7.82432 24.9392C7.37552 25.1866 6.92672 25.4426 6.46946 25.7071L7.23157 27.0381C7.66343 26.7821 8.10376 26.5432 8.54409 26.3043L7.82432 24.9392ZM5.14 26.5347C4.66495 26.8077 4.206 27.1746 3.81054 27.4391L4.73354 28.6677C5.1544 28.3605 5.60743 28.0449 5.96985 27.823L5.14 26.5347ZM2.60811 28.4629C2.20165 28.8383 1.80112 29.2735 1.49035 29.6403L2.65045 30.6386C2.97646 30.2376 3.26013 29.939 3.64119 29.5977L2.60811 28.4629ZM21.0511 28.5738L21.1866 30.1011C21.627 30.0243 22.0673 30.0755 22.5076 30.1437L22.7701 28.6336C22.2112 28.5482 21.6185 28.4885 21.0511 28.5738ZM17.9011 29.427L18.4769 30.8519C18.9172 30.6557 19.3745 30.5021 19.8402 30.357C19.6793 29.8707 19.5608 29.3759 19.4338 28.881C18.9003 29.0346 18.3668 29.2393 17.9011 29.427ZM24.4637 29.3503L23.6 30.613C23.9556 30.8775 24.3028 31.1591 24.5823 31.5089L25.7339 30.5021C25.302 30.0584 24.9718 29.6403 24.4637 29.3503ZM16.4616 30.1181C15.9958 30.357 15.547 30.6301 15.0982 30.8946L15.8688 32.217C16.3091 31.9781 16.741 31.6966 17.1729 31.4662L16.4616 30.1181ZM0.559727 31.0567C0.303997 31.6113 0.0965338 32.2085 0 32.7375L1.49881 33.002C1.59027 32.5156 1.72152 32.1658 1.91374 31.7478C1.44885 31.543 1.00514 31.2956 0.559727 31.0567ZM13.7772 31.7222C13.3454 32.0037 12.922 32.2853 12.4986 32.5754L13.3454 33.8552C13.7688 33.5736 14.1837 33.2835 14.6071 33.002L13.7772 31.7222ZM26.7077 31.8246L25.429 32.6607C25.7 33.0702 25.9625 33.4968 26.2081 33.932L27.5291 33.1641C27.2327 32.6863 27.021 32.2597 26.7077 31.8246ZM11.2369 33.4456C10.8135 33.7272 10.3901 34.0002 9.97516 34.2988L10.8219 35.5787C11.2284 35.28 11.6603 34.9985 12.0921 34.7084L11.2369 33.4456ZM1.51575 34.2562C1.02546 34.3586 0.530936 34.4439 0.0381055 34.5377C0.127018 35.135 0.364966 35.7152 0.58005 36.1759L1.95608 35.5104C1.77233 35.0838 1.59789 34.6401 1.51575 34.2562ZM28.2827 34.4951L26.9617 35.263C27.2242 35.7237 27.5291 36.2186 27.7746 36.611L29.0533 35.7834C28.7654 35.3312 28.5198 34.9046 28.2827 34.4951ZM8.72191 35.135C8.29852 35.3995 7.88359 35.6554 7.44326 35.9029L8.19691 37.2424C8.6457 36.9779 9.0945 36.7134 9.52636 36.4319L8.72191 35.135ZM2.68432 36.5257L1.64277 37.6519C2.11358 38.1041 2.69448 38.4028 3.32788 38.5393L3.66659 37.0462C3.29062 36.9694 2.9392 36.7817 2.68432 36.5257ZM6.15615 36.5513C5.73191 36.7475 5.29158 36.9011 4.83516 36.995L5.18234 38.4966C5.72598 38.3857 6.23744 38.1809 6.7489 37.9676L6.15615 36.5513ZM29.8916 36.9608L28.7146 37.925C29.0787 38.3772 29.5275 38.8123 29.917 39.1195L30.8569 37.9079C30.4844 37.6178 30.1626 37.268 29.8916 36.9608ZM31.9324 38.454L31.5513 39.9471C32.2203 40.0836 32.7199 40.1262 33.3465 40.058L33.1602 38.5307C32.7453 38.599 32.3388 38.5563 31.9324 38.454Z" fill="#D0B583"/>
</svg>
